HIERARCHY
ROOT Hips
{
   OFFSET 0.00000 0.00000 0.00000
   CHANNELS 6 Xposition Yposition Zposition Zrotation Xrotation Yrotation
   JOINT RightUpLeg
   {
      OFFSET -8.051219 -7.800363 0.091487
      CHANNELS 3 Zrotation Xrotation Yrotation
      JOINT RightLeg
      {
         OFFSET 0.000000 -39.980428 1.235430
         CHANNELS 3 Zrotation Xrotation Yrotation
         JOINT RightFoot
         {
            OFFSET 0.228194 -37.883157 -1.314531
            CHANNELS 3 Zrotation Xrotation Yrotation
            JOINT RightToes
            {
               OFFSET 0.036000 -3.973581 7.649189
               CHANNELS 3 Zrotation Xrotation Yrotation
               End Site
               {
                  OFFSET -0.072000 -0.123703 8.801811
               }
            }
         }
      }
   }
   JOINT Spine
   {
      OFFSET 0.000000 10.701450 0.000000
      CHANNELS 3 Zrotation Xrotation Yrotation
      JOINT Spine1
      {
         OFFSET 0.000000 23.091659 0.114897
         CHANNELS 3 Zrotation Xrotation Yrotation
         JOINT HEad
         {
            OFFSET 0.000000 7.860744 0.010207
            CHANNELS 3 Zrotation Xrotation Yrotation
            End Site
            {
               OFFSET -0.261000 11.496780 2.262555
            }
         }
         JOINT LeftShoulder1
         {
            OFFSET 8.091000 -0.326027 -0.198000
            CHANNELS 3 Zrotation Xrotation Yrotation
            JOINT LeftArm
            {
               OFFSET 9.254430 -0.003042 0.289911
               CHANNELS 3 Zrotation Xrotation Yrotation
               JOINT LeftForeArm
               {
                  OFFSET 29.490208 0.089230 -1.281906
                  CHANNELS 3 Zrotation Xrotation Yrotation
                  JOINT LeftHand
                  {
                     OFFSET 24.807870 0.076826 0.919944
                     CHANNELS 3 Zrotation Xrotation Yrotation
                     End Site
                     {
                        OFFSET 15.069871 -0.540000 1.352619
                     }
                  }
               }
            }
         }
         JOINT RightShoulder
         {
            OFFSET -8.091000 -0.326027 -0.198000
            CHANNELS 3 Zrotation Xrotation Yrotation
            JOINT RightArm
            {
               OFFSET -9.254430 -0.003042 0.289911
               CHANNELS 3 Zrotation Xrotation Yrotation
               JOINT RightForeArm
               {
                  OFFSET -29.607386 0.089230 -1.281906
                  CHANNELS 3 Zrotation Xrotation Yrotation
                  JOINT RightHand
                  {
                     OFFSET -24.742889 0.076826 0.919944
                     CHANNELS 3 Zrotation Xrotation Yrotation
                     End Site
                     {
                        OFFSET -14.968080 -0.540000 1.352619
                     }
                  }
               }
            }
         }
      }
   }
   JOINT LeftUpLeg
   {
      OFFSET 8.051219 -7.800363 0.091487
      CHANNELS 3 Zrotation Xrotation Yrotation
      JOINT LeftLeg
      {
         OFFSET 0.000000 -39.980428 1.235430
         CHANNELS 3 Zrotation Xrotation Yrotation
         JOINT LeftFoot
         {
            OFFSET -0.228194 -37.883157 -1.314531
            CHANNELS 3 Zrotation Xrotation Yrotation
            JOINT LeftToes
            {
               OFFSET -0.036000 -3.973581 7.649189
               CHANNELS 3 Zrotation Xrotation Yrotation
               End Site
               {
                  OFFSET 0.072000 -0.042703 8.801811
               }
            }
         }
      }
   }
}
MOTION
Frames: 12
Frame Time: 0.016667
-110.043896 81.024340 286.233478 -25.193211 -21.200282 -37.666919 -3.064411 13.308215 -62.738955 -29.231468 18.063969 39.167679 -31.991660 28.332342 40.118195 -7.684587 -15.632334 -18.578424 10.804733 20.324056 163.028023 2.190146 -4.679563 -153.207372 13.380022 31.143351 2.832310 3.020455 32.168255 -10.225718 -99.911980 -76.304223 -140.777575 22.178019 19.471768 -57.484320 -108.100270 -39.512422 -124.312544 -11.961338 84.431431 37.850463 105.756976 7.149279 187.594793 24.640785 55.375103 32.591733 -6.016787 9.643477 39.360598 6.211230 -11.346823 -95.568055 -18.486768 1.979335 68.276927 -31.269388 -10.623373 56.119443 -3.463246 -13.983671 -27.478182
-107.709683 80.794200 284.907527 -25.666543 -21.494662 -37.804626 -1.546127 12.704319 -65.068596 -30.762229 14.394492 40.602442 -32.746160 27.792429 40.073864 -8.151598 -13.997944 -16.060404 10.258072 22.513671 164.793504 1.812502 -4.242049 -154.984546 14.212153 31.629558 1.142564 1.397927 31.859445 -7.794889 -106.877277 -70.574473 -148.036181 21.694759 23.129030 -59.761649 -108.957869 -38.476231 -122.201250 -14.454586 83.903239 41.211333 107.304505 8.073496 187.293554 25.094976 59.342719 31.131247 0.448106 12.706808 32.549024 5.943663 -12.175534 -94.200753 -19.817087 0.151486 68.790359 -30.292722 -9.100589 56.462128 -3.737442 -13.866586 -25.712556
-105.350016 80.635880 283.591781 -26.095673 -21.800529 -37.897441 -0.389464 11.215431 -67.495847 -32.543601 11.102698 42.142807 -34.574462 27.790100 39.432219 -8.613947 -12.067034 -13.095519 10.424944 24.736766 166.438255 0.716117 -4.195827 -156.500876 15.307893 32.086077 -0.538705 -0.071429 32.692987 -6.156868 -112.610476 -65.052279 -154.668145 20.765305 27.421937 -62.140924 -110.108626 -37.542183 -119.686866 -15.993460 82.641847 43.858957 108.648994 9.670452 188.376945 25.416360 62.333153 30.008296 -3.523340 10.450228 37.741856 6.043030 -12.852158 -93.241556 -21.123484 -1.698961 69.022825 -29.760664 -6.887931 56.604698 -3.928125 -13.577421 -23.893720
-102.862719 80.688208 282.123027 -27.307501 -22.219258 -38.365733 -1.499951 10.116001 -70.119931 -34.980059 8.345057 42.755601 -17.609618 28.652135 37.128000 -8.807893 -9.125281 -9.936062 9.759750 25.905777 168.389503 0.013383 -4.303169 -157.397652 16.958851 32.691106 -2.251776 -1.693062 34.399667 -5.428931 -116.592996 -59.356741 -160.580193 10.572397 31.005009 -59.635297 -109.317779 -31.855671 -116.271854 -16.794518 83.261857 46.030171 109.871762 11.087654 188.883991 27.063749 65.770548 29.913356 0.216505 11.437077 33.967962 7.271938 -12.866456 -92.524966 -22.297233 -4.167705 69.446966 -29.255592 -4.081437 56.496763 -4.085333 -13.278789 -22.022125
-100.318812 80.534104 280.537964 -28.637844 -23.440562 -39.125496 -1.272253 9.016003 -74.023527 -36.453642 5.945478 41.316118 -15.007068 30.538732 34.537449 -8.760884 -5.835946 -7.562727 9.088398 26.689526 170.699336 -0.168832 -4.152927 -157.730132 19.464477 33.380470 -4.040383 -3.075392 37.461911 -4.559954 -118.331484 -55.279859 -166.318958 -4.455176 33.833711 -55.365254 -116.723726 -38.204339 -116.391915 -17.304315 84.095837 47.439291 110.593501 12.635867 189.222509 27.582947 68.883154 28.587958 -3.047258 9.599733 36.761024 7.875848 -12.442460 -91.778331 -24.093590 -5.770111 69.280733 -29.059050 -1.595485 55.769273 -4.143607 -12.927320 -20.369765
-97.818325 80.397910 278.948513 -28.907990 -23.697346 -41.074736 -2.341140 7.109966 -76.917438 -36.802511 2.858253 39.972381 -8.572410 31.393626 32.717450 -9.087995 -3.832227 -4.985492 8.613081 28.445508 171.163379 -1.201199 -5.378000 -158.912766 21.923084 34.005364 -5.679882 -4.726009 38.469002 -3.520409 -115.386211 -50.460013 -165.074184 -3.524315 36.830193 -53.187984 -107.487910 -21.856834 -110.890785 -16.887716 85.074432 47.555650 110.471917 13.662584 188.747579 29.687359 71.323130 28.867064 -1.980481 8.555361 34.971719 8.620300 -12.794652 -89.944589 -25.275566 -7.122187 69.177795 -29.770660 1.604262 55.641682 -4.218484 -12.365146 -18.242254
-95.271739 80.318869 277.296138 -29.310309 -24.833518 -42.137787 -2.838799 6.811862 -80.145829 -35.976201 -0.357610 39.053867 -9.749079 31.703870 32.160605 -9.640009 -2.681493 -2.276886 7.430587 28.797778 172.485062 -1.548926 -5.208270 -159.164691 22.971123 35.376429 -6.884743 -5.388952 39.486191 -2.547194 -109.191960 -45.291889 -161.859255 0.043145 42.276870 -59.480791 -121.198456 -40.421104 -116.650574 -16.095474 85.961762 47.530149 111.530548 15.818844 188.715149 30.539941 73.392541 28.441355 -4.674837 6.303957 37.993825 8.853998 -12.422685 -87.477334 -26.553462 -8.218056 68.678413 -30.350294 3.907261 55.292912 -4.338410 -12.425310 -16.535295
-92.808341 80.367106 275.690475 -29.197208 -25.243855 -43.901229 -4.078719 6.321694 -83.371379 -34.218312 -4.107338 39.285889 -7.583820 32.562869 32.262662 -10.340177 -1.858575 0.684928 6.180376 29.761180 173.687694 -2.205481 -5.215530 -159.423131 24.006073 36.681691 -7.832597 -5.849368 41.895048 -2.817053 -109.588391 -40.047151 -161.869404 4.700785 46.369710 -60.942465 -108.282117 -29.522437 -117.401827 -15.657124 86.838533 46.458339 113.161632 17.277324 186.889603 32.241549 75.631730 28.758389 -4.265950 4.640380 38.350460 8.722102 -12.442260 -84.916450 -27.071586 -8.037685 67.761009 -30.935320 5.798570 55.116676 -4.456500 -12.870696 -15.136317
-90.390004 80.578259 274.195266 -28.814242 -26.382924 -45.586595 -5.095943 5.893208 -87.719423 -32.002841 -7.638272 39.873968 -10.675588 32.973281 32.119152 -11.068322 -1.688286 3.316641 5.654212 31.053435 174.832434 -2.161279 -3.903705 -159.407531 23.586327 37.030622 -6.830675 -5.138514 46.537924 -4.514151 -111.716343 -33.758541 -165.345930 5.252713 51.506351 -62.932605 -116.259368 -33.915130 -116.211516 -16.863404 87.093907 46.113903 115.763619 19.277492 184.559703 30.961090 75.938023 27.377744 -4.817489 1.853620 45.137992 8.376004 -11.910338 -83.628502 -27.638094 -9.009240 67.444962 -31.971269 7.875194 54.606133 -4.417111 -13.195755 -14.234686
-88.016137 80.925664 272.793079 -28.603936 -27.587535 -47.641925 -7.295840 6.549714 -91.146504 -28.992377 -11.383659 43.127297 -8.363635 33.390879 34.153924 -12.017933 -2.391142 6.901212 5.373147 32.490257 174.046102 -2.785225 -2.307941 -160.362460 21.298820 36.448505 -4.068561 -3.957313 52.745743 -6.383083 -116.172939 -27.681358 -169.820810 6.391095 56.906056 -62.064672 -108.110222 -29.164061 -117.664789 -18.020062 86.520165 46.549935 119.814605 17.641969 180.258391 32.211059 77.621384 25.085695 -5.972547 4.774758 32.804698 8.217739 -11.850767 -83.491112 -29.403913 -10.595293 67.908118 -33.530532 10.473977 54.115896 -4.220081 -13.162362 -13.698101
-85.696057 81.396874 271.539379 -28.561582 -28.281344 -48.468248 -9.449907 7.376922 -93.670321 -26.424277 -14.771384 49.084441 -4.153721 33.296472 38.172247 -12.983461 -3.860383 10.685573 5.794370 33.911961 171.873350 -2.745197 -1.531843 -160.973092 18.674237 36.645891 -0.173818 -2.315648 59.490674 -8.149742 -120.092129 -20.114878 -176.121687 5.524628 62.993230 -62.406182 -113.138593 -32.223603 -115.998687 -20.127642 85.059515 48.185332 122.651920 17.993946 177.911278 32.868728 79.645285 23.256214 -6.551269 -1.441815 48.888793 5.923619 -9.945896 -83.949677 -31.316527 -9.094844 65.364781 -24.892302 14.250518 54.350653 -3.841193 -12.931729 -13.699852
-83.274621 82.156228 270.260769 -27.675546 -27.728097 -50.105260 -10.375372 5.881130 -96.752034 -23.245405 -17.083854 54.062785 -7.563998 31.528587 41.350665 -13.623168 -5.465095 12.870061 4.392153 35.378918 170.801967 -3.325029 -1.175695 -160.932180 15.033964 35.131761 4.711662 -0.599915 65.386159 -11.124887 -124.262328 -9.905046 -183.881957 5.480750 67.887928 -61.597166 -108.515518 -29.470559 -116.088818 -22.668073 82.373167 51.401453 122.561693 19.065312 176.091320 34.092667 82.948283 22.991390 -6.601304 8.477811 26.057011 4.752948 -9.741555 -83.603086 -34.227779 -9.004554 64.195520 -16.006222 16.984705 53.490381 -3.361583 -12.437920 -14.003803
